<mxfile host="app.diagrams.net" modified="2022-09-26T22:02:19.294Z" agent="5.0 (Windows NT 10.0; Win64; x64) AppleWebKit/537.36 (KHTML, like Gecko) Chrome/105.0.0.0 Safari/537.36" etag="s9OsMCxqQuYFb7ps9D7c" version="17.2.1" type="github">
  <diagram name="Page-1" id="c4acf3e9-155e-7222-9cf6-157b1a14988f">
    <mxGraphModel dx="4270" dy="3014" grid="1" gridSize="10" guides="1" tooltips="1" connect="1" arrows="1" fold="1" page="1" pageScale="1" pageWidth="850" pageHeight="1100" background="none" math="0" shadow="0">
      <root>
        <mxCell id="0" />
        <mxCell id="1" parent="0" />
        <mxCell id="17acba5748e5396b-1" value="Modelo Conceptual" style="shape=umlFrame;whiteSpace=wrap;html=1;rounded=0;shadow=0;comic=0;labelBackgroundColor=none;strokeWidth=1;fontFamily=Verdana;fontSize=10;align=center;width=110;height=27;" parent="1" vertex="1">
          <mxGeometry x="-120" y="-97" width="1120" height="1060" as="geometry" />
        </mxCell>
        <mxCell id="17acba5748e5396b-30" value="SobreNosotros" style="swimlane;html=1;fontStyle=1;childLayout=stackLayout;horizontal=1;startSize=26;fillColor=none;horizontalStack=0;resizeParent=1;resizeLast=0;collapsible=1;marginBottom=0;swimlaneFillColor=#ffffff;rounded=0;shadow=0;comic=0;labelBackgroundColor=none;strokeWidth=1;fontFamily=Verdana;fontSize=10;align=center;" parent="1" vertex="1">
          <mxGeometry x="430" y="-70" width="160" height="52" as="geometry" />
        </mxCell>
        <mxCell id="17acba5748e5396b-32" value="name: String" style="text;html=1;strokeColor=none;fillColor=none;align=left;verticalAlign=top;spacingLeft=4;spacingRight=4;whiteSpace=wrap;overflow=hidden;rotatable=0;points=[[0,0.5],[1,0.5]];portConstraint=eastwest;" parent="17acba5748e5396b-30" vertex="1">
          <mxGeometry y="26" width="160" height="26" as="geometry" />
        </mxCell>
        <mxCell id="PXVH4oSnN2z75oWtaAcK-1" value="Inicio" style="swimlane;fontStyle=0;align=center;verticalAlign=top;childLayout=stackLayout;horizontal=1;startSize=26;horizontalStack=0;resizeParent=1;resizeParentMax=0;resizeLast=0;collapsible=1;marginBottom=0;" vertex="1" parent="1">
          <mxGeometry x="-90" y="334" width="160" height="120" as="geometry">
            <mxRectangle x="50" y="325" width="60" height="26" as="alternateBounds" />
          </mxGeometry>
        </mxCell>
        <mxCell id="PXVH4oSnN2z75oWtaAcK-2" value="Menú y Especialidades" style="text;strokeColor=none;fillColor=none;align=center;verticalAlign=top;spacingLeft=4;spacingRight=4;overflow=hidden;rotatable=0;points=[[0,0.5],[1,0.5]];portConstraint=eastwest;" vertex="1" parent="PXVH4oSnN2z75oWtaAcK-1">
          <mxGeometry y="26" width="160" height="26" as="geometry" />
        </mxCell>
        <mxCell id="PXVH4oSnN2z75oWtaAcK-3" value="" style="line;strokeWidth=1;fillColor=none;align=left;verticalAlign=middle;spacingTop=-1;spacingLeft=3;spacingRight=3;rotatable=0;labelPosition=right;points=[];portConstraint=eastwest;" vertex="1" parent="PXVH4oSnN2z75oWtaAcK-1">
          <mxGeometry y="52" width="160" height="8" as="geometry" />
        </mxCell>
        <mxCell id="PXVH4oSnN2z75oWtaAcK-6" value="Reservación online" style="text;strokeColor=none;fillColor=none;align=center;verticalAlign=top;spacingLeft=4;spacingRight=4;overflow=hidden;rotatable=0;points=[[0,0.5],[1,0.5]];portConstraint=eastwest;" vertex="1" parent="PXVH4oSnN2z75oWtaAcK-1">
          <mxGeometry y="60" width="160" height="26" as="geometry" />
        </mxCell>
        <mxCell id="PXVH4oSnN2z75oWtaAcK-7" value="" style="line;strokeWidth=1;fillColor=none;align=left;verticalAlign=middle;spacingTop=-1;spacingLeft=3;spacingRight=3;rotatable=0;labelPosition=right;points=[];portConstraint=eastwest;" vertex="1" parent="PXVH4oSnN2z75oWtaAcK-1">
          <mxGeometry y="86" width="160" height="8" as="geometry" />
        </mxCell>
        <mxCell id="PXVH4oSnN2z75oWtaAcK-4" value="Contacto" style="text;strokeColor=none;fillColor=none;align=center;verticalAlign=top;spacingLeft=4;spacingRight=4;overflow=hidden;rotatable=0;points=[[0,0.5],[1,0.5]];portConstraint=eastwest;" vertex="1" parent="PXVH4oSnN2z75oWtaAcK-1">
          <mxGeometry y="94" width="160" height="26" as="geometry" />
        </mxCell>
        <mxCell id="PXVH4oSnN2z75oWtaAcK-8" value="MenúPrincipal" style="text;html=1;strokeColor=none;fillColor=none;align=center;verticalAlign=middle;whiteSpace=wrap;rounded=0;fontStyle=1" vertex="1" parent="1">
          <mxGeometry x="-40" y="470" width="60" height="30" as="geometry" />
        </mxCell>
        <mxCell id="PXVH4oSnN2z75oWtaAcK-24" value="PaginaWeb" style="swimlane;fontStyle=1;align=center;verticalAlign=top;childLayout=stackLayout;horizontal=1;startSize=26;horizontalStack=0;resizeParent=1;resizeParentMax=0;resizeLast=0;collapsible=1;marginBottom=0;" vertex="1" parent="1">
          <mxGeometry x="-90" y="122" width="160" height="60" as="geometry" />
        </mxCell>
        <mxCell id="PXVH4oSnN2z75oWtaAcK-25" value="name: String" style="text;strokeColor=none;fillColor=none;align=left;verticalAlign=top;spacingLeft=4;spacingRight=4;overflow=hidden;rotatable=0;points=[[0,0.5],[1,0.5]];portConstraint=eastwest;" vertex="1" parent="PXVH4oSnN2z75oWtaAcK-24">
          <mxGeometry y="26" width="160" height="26" as="geometry" />
        </mxCell>
        <mxCell id="PXVH4oSnN2z75oWtaAcK-26" value="" style="line;strokeWidth=1;fillColor=none;align=left;verticalAlign=middle;spacingTop=-1;spacingLeft=3;spacingRight=3;rotatable=0;labelPosition=right;points=[];portConstraint=eastwest;" vertex="1" parent="PXVH4oSnN2z75oWtaAcK-24">
          <mxGeometry y="52" width="160" height="8" as="geometry" />
        </mxCell>
        <mxCell id="PXVH4oSnN2z75oWtaAcK-33" value="" style="triangle;aspect=fixed;fillColor=#000000;rotation=90;" vertex="1" parent="1">
          <mxGeometry x="5" y="265" width="6" height="12" as="geometry" />
        </mxCell>
        <mxCell id="PXVH4oSnN2z75oWtaAcK-34" value="" style="endArrow=none;html=1;rounded=0;align=center;verticalAlign=bottom;labelBackgroundColor=none;exitX=0.5;exitY=1;exitDx=0;exitDy=0;entryX=0.5;entryY=0;entryDx=0;entryDy=0;" edge="1" parent="1" source="PXVH4oSnN2z75oWtaAcK-24" target="PXVH4oSnN2z75oWtaAcK-1">
          <mxGeometry relative="1" as="geometry">
            <mxPoint x="100" y="382" as="sourcePoint" />
            <mxPoint x="240" y="382" as="targetPoint" />
          </mxGeometry>
        </mxCell>
        <mxCell id="PXVH4oSnN2z75oWtaAcK-38" value="tiene" style="text;html=1;strokeColor=none;fillColor=none;align=center;verticalAlign=middle;whiteSpace=wrap;rounded=0;" vertex="1" parent="1">
          <mxGeometry y="250" width="20" height="10" as="geometry" />
        </mxCell>
        <mxCell id="PXVH4oSnN2z75oWtaAcK-40" value="" style="endArrow=none;html=1;rounded=0;align=center;verticalAlign=bottom;labelBackgroundColor=none;exitX=1.005;exitY=0.116;exitDx=0;exitDy=0;exitPerimeter=0;entryX=-0.01;entryY=0.359;entryDx=0;entryDy=0;entryPerimeter=0;edgeStyle=orthogonalEdgeStyle;" edge="1" parent="1" source="PXVH4oSnN2z75oWtaAcK-1" target="PXVH4oSnN2z75oWtaAcK-42">
          <mxGeometry relative="1" as="geometry">
            <mxPoint x="230" y="353" as="sourcePoint" />
            <mxPoint x="370" y="353" as="targetPoint" />
          </mxGeometry>
        </mxCell>
        <mxCell id="PXVH4oSnN2z75oWtaAcK-41" value="Inicio" style="swimlane;fontStyle=1;align=center;verticalAlign=top;childLayout=stackLayout;horizontal=1;startSize=26;horizontalStack=0;resizeParent=1;resizeParentMax=0;resizeLast=0;collapsible=1;marginBottom=0;" vertex="1" parent="1">
          <mxGeometry x="220" y="46" width="160" height="60" as="geometry" />
        </mxCell>
        <mxCell id="PXVH4oSnN2z75oWtaAcK-42" value="name:String" style="text;strokeColor=none;fillColor=none;align=left;verticalAlign=top;spacingLeft=4;spacingRight=4;overflow=hidden;rotatable=0;points=[[0,0.5],[1,0.5]];portConstraint=eastwest;" vertex="1" parent="PXVH4oSnN2z75oWtaAcK-41">
          <mxGeometry y="26" width="160" height="26" as="geometry" />
        </mxCell>
        <mxCell id="PXVH4oSnN2z75oWtaAcK-43" value="" style="line;strokeWidth=1;fillColor=none;align=left;verticalAlign=middle;spacingTop=-1;spacingLeft=3;spacingRight=3;rotatable=0;labelPosition=right;points=[];portConstraint=eastwest;" vertex="1" parent="PXVH4oSnN2z75oWtaAcK-41">
          <mxGeometry y="52" width="160" height="8" as="geometry" />
        </mxCell>
        <mxCell id="PXVH4oSnN2z75oWtaAcK-47" value="MenuOrdenar" style="swimlane;fontStyle=1;align=center;verticalAlign=top;childLayout=stackLayout;horizontal=1;startSize=26;horizontalStack=0;resizeParent=1;resizeParentMax=0;resizeLast=0;collapsible=1;marginBottom=0;" vertex="1" parent="1">
          <mxGeometry x="550" y="399" width="160" height="86" as="geometry" />
        </mxCell>
        <mxCell id="PXVH4oSnN2z75oWtaAcK-48" value="name:String" style="text;strokeColor=none;fillColor=none;align=left;verticalAlign=top;spacingLeft=4;spacingRight=4;overflow=hidden;rotatable=0;points=[[0,0.5],[1,0.5]];portConstraint=eastwest;" vertex="1" parent="PXVH4oSnN2z75oWtaAcK-47">
          <mxGeometry y="26" width="160" height="26" as="geometry" />
        </mxCell>
        <mxCell id="PXVH4oSnN2z75oWtaAcK-49" value="" style="line;strokeWidth=1;fillColor=none;align=left;verticalAlign=middle;spacingTop=-1;spacingLeft=3;spacingRight=3;rotatable=0;labelPosition=right;points=[];portConstraint=eastwest;" vertex="1" parent="PXVH4oSnN2z75oWtaAcK-47">
          <mxGeometry y="52" width="160" height="8" as="geometry" />
        </mxCell>
        <mxCell id="PXVH4oSnN2z75oWtaAcK-99" value="abrirPlatillo(platillo)" style="text;strokeColor=none;fillColor=none;align=left;verticalAlign=top;spacingLeft=4;spacingRight=4;overflow=hidden;rotatable=0;points=[[0,0.5],[1,0.5]];portConstraint=eastwest;" vertex="1" parent="PXVH4oSnN2z75oWtaAcK-47">
          <mxGeometry y="60" width="160" height="26" as="geometry" />
        </mxCell>
        <mxCell id="PXVH4oSnN2z75oWtaAcK-50" value="Reservación Online" style="swimlane;fontStyle=1;align=center;verticalAlign=top;childLayout=stackLayout;horizontal=1;startSize=26;horizontalStack=0;resizeParent=1;resizeParentMax=0;resizeLast=0;collapsible=1;marginBottom=0;" vertex="1" parent="1">
          <mxGeometry x="220" y="403" width="160" height="60" as="geometry" />
        </mxCell>
        <mxCell id="PXVH4oSnN2z75oWtaAcK-51" value="name:String" style="text;strokeColor=none;fillColor=none;align=left;verticalAlign=top;spacingLeft=4;spacingRight=4;overflow=hidden;rotatable=0;points=[[0,0.5],[1,0.5]];portConstraint=eastwest;" vertex="1" parent="PXVH4oSnN2z75oWtaAcK-50">
          <mxGeometry y="26" width="160" height="26" as="geometry" />
        </mxCell>
        <mxCell id="PXVH4oSnN2z75oWtaAcK-52" value="" style="line;strokeWidth=1;fillColor=none;align=left;verticalAlign=middle;spacingTop=-1;spacingLeft=3;spacingRight=3;rotatable=0;labelPosition=right;points=[];portConstraint=eastwest;" vertex="1" parent="PXVH4oSnN2z75oWtaAcK-50">
          <mxGeometry y="52" width="160" height="8" as="geometry" />
        </mxCell>
        <mxCell id="PXVH4oSnN2z75oWtaAcK-53" value="Contacto" style="swimlane;fontStyle=1;align=center;verticalAlign=top;childLayout=stackLayout;horizontal=1;startSize=26;horizontalStack=0;resizeParent=1;resizeParentMax=0;resizeLast=0;collapsible=1;marginBottom=0;" vertex="1" parent="1">
          <mxGeometry x="220" y="650" width="160" height="60" as="geometry" />
        </mxCell>
        <mxCell id="PXVH4oSnN2z75oWtaAcK-54" value="name:String" style="text;strokeColor=none;fillColor=none;align=left;verticalAlign=top;spacingLeft=4;spacingRight=4;overflow=hidden;rotatable=0;points=[[0,0.5],[1,0.5]];portConstraint=eastwest;" vertex="1" parent="PXVH4oSnN2z75oWtaAcK-53">
          <mxGeometry y="26" width="160" height="26" as="geometry" />
        </mxCell>
        <mxCell id="PXVH4oSnN2z75oWtaAcK-55" value="" style="line;strokeWidth=1;fillColor=none;align=left;verticalAlign=middle;spacingTop=-1;spacingLeft=3;spacingRight=3;rotatable=0;labelPosition=right;points=[];portConstraint=eastwest;" vertex="1" parent="PXVH4oSnN2z75oWtaAcK-53">
          <mxGeometry y="52" width="160" height="8" as="geometry" />
        </mxCell>
        <mxCell id="PXVH4oSnN2z75oWtaAcK-57" value="" style="endArrow=none;html=1;rounded=0;align=center;verticalAlign=bottom;labelBackgroundColor=none;entryX=-0.001;entryY=0.067;entryDx=0;entryDy=0;edgeStyle=orthogonalEdgeStyle;entryPerimeter=0;" edge="1" parent="1" target="PXVH4oSnN2z75oWtaAcK-50">
          <mxGeometry relative="1" as="geometry">
            <mxPoint x="70" y="407" as="sourcePoint" />
            <mxPoint x="330" y="374" as="targetPoint" />
            <Array as="points">
              <mxPoint x="200" y="407" />
              <mxPoint x="200" y="407" />
            </Array>
          </mxGeometry>
        </mxCell>
        <mxCell id="PXVH4oSnN2z75oWtaAcK-58" value="" style="endArrow=none;html=1;rounded=0;align=center;verticalAlign=bottom;labelBackgroundColor=none;exitX=1;exitY=0.5;exitDx=0;exitDy=0;entryX=-0.012;entryY=0.049;entryDx=0;entryDy=0;entryPerimeter=0;edgeStyle=orthogonalEdgeStyle;" edge="1" parent="1" source="PXVH4oSnN2z75oWtaAcK-4" target="PXVH4oSnN2z75oWtaAcK-54">
          <mxGeometry relative="1" as="geometry">
            <mxPoint x="220" y="408" as="sourcePoint" />
            <mxPoint x="330" y="444" as="targetPoint" />
          </mxGeometry>
        </mxCell>
        <mxCell id="PXVH4oSnN2z75oWtaAcK-69" value="" style="endArrow=none;html=1;rounded=0;align=center;verticalAlign=bottom;labelBackgroundColor=none;exitX=1;exitY=0.5;exitDx=0;exitDy=0;edgeStyle=orthogonalEdgeStyle;elbow=vertical;" edge="1" parent="1" source="PXVH4oSnN2z75oWtaAcK-54" target="17acba5748e5396b-32">
          <mxGeometry relative="1" as="geometry">
            <mxPoint x="490" y="262" as="sourcePoint" />
            <mxPoint x="680.96" y="176.08400000000006" as="targetPoint" />
            <Array as="points">
              <mxPoint x="380" y="680" />
              <mxPoint x="510" y="680" />
            </Array>
          </mxGeometry>
        </mxCell>
        <mxCell id="PXVH4oSnN2z75oWtaAcK-73" value="contiene" style="text;html=1;strokeColor=none;fillColor=none;align=center;verticalAlign=middle;whiteSpace=wrap;rounded=0;rotation=0;" vertex="1" parent="1">
          <mxGeometry x="570" y="182" width="60" height="10" as="geometry" />
        </mxCell>
        <mxCell id="PXVH4oSnN2z75oWtaAcK-76" value="" style="triangle;aspect=fixed;fillColor=#000000;rotation=0;" vertex="1" parent="1">
          <mxGeometry x="640" y="180" width="6" height="12" as="geometry" />
        </mxCell>
        <mxCell id="PXVH4oSnN2z75oWtaAcK-78" value="contiene" style="text;html=1;strokeColor=none;fillColor=none;align=center;verticalAlign=middle;whiteSpace=wrap;rounded=0;rotation=0;" vertex="1" parent="1">
          <mxGeometry x="574" y="24.5" width="60" height="10" as="geometry" />
        </mxCell>
        <mxCell id="PXVH4oSnN2z75oWtaAcK-79" value="" style="triangle;aspect=fixed;fillColor=#000000;rotation=0;" vertex="1" parent="1">
          <mxGeometry x="644" y="22.5" width="6" height="12" as="geometry" />
        </mxCell>
        <mxCell id="PXVH4oSnN2z75oWtaAcK-80" value="contiene" style="text;html=1;strokeColor=none;fillColor=none;align=center;verticalAlign=middle;whiteSpace=wrap;rounded=0;rotation=0;" vertex="1" parent="1">
          <mxGeometry x="570" y="358" width="60" height="10" as="geometry" />
        </mxCell>
        <mxCell id="PXVH4oSnN2z75oWtaAcK-81" value="" style="triangle;aspect=fixed;fillColor=#000000;rotation=0;" vertex="1" parent="1">
          <mxGeometry x="640" y="356" width="6" height="12" as="geometry" />
        </mxCell>
        <mxCell id="PXVH4oSnN2z75oWtaAcK-85" value="Testimonios" style="swimlane;html=1;fontStyle=1;childLayout=stackLayout;horizontal=1;startSize=26;fillColor=none;horizontalStack=0;resizeParent=1;resizeLast=0;collapsible=1;marginBottom=0;swimlaneFillColor=#ffffff;rounded=0;shadow=0;comic=0;labelBackgroundColor=none;strokeWidth=1;fontFamily=Verdana;fontSize=10;align=center;" vertex="1" parent="1">
          <mxGeometry x="550" y="50" width="160" height="52" as="geometry" />
        </mxCell>
        <mxCell id="PXVH4oSnN2z75oWtaAcK-86" value="name: String" style="text;html=1;strokeColor=none;fillColor=none;align=left;verticalAlign=top;spacingLeft=4;spacingRight=4;whiteSpace=wrap;overflow=hidden;rotatable=0;points=[[0,0.5],[1,0.5]];portConstraint=eastwest;" vertex="1" parent="PXVH4oSnN2z75oWtaAcK-85">
          <mxGeometry y="26" width="160" height="26" as="geometry" />
        </mxCell>
        <mxCell id="PXVH4oSnN2z75oWtaAcK-87" value="PlatillosPrincipales" style="swimlane;html=1;fontStyle=1;childLayout=stackLayout;horizontal=1;startSize=26;fillColor=none;horizontalStack=0;resizeParent=1;resizeLast=0;collapsible=1;marginBottom=0;swimlaneFillColor=#ffffff;rounded=0;shadow=0;comic=0;labelBackgroundColor=none;strokeWidth=1;fontFamily=Verdana;fontSize=10;align=center;" vertex="1" parent="1">
          <mxGeometry x="550" y="110" width="160" height="52" as="geometry" />
        </mxCell>
        <mxCell id="PXVH4oSnN2z75oWtaAcK-88" value="name: String" style="text;html=1;strokeColor=none;fillColor=none;align=left;verticalAlign=top;spacingLeft=4;spacingRight=4;whiteSpace=wrap;overflow=hidden;rotatable=0;points=[[0,0.5],[1,0.5]];portConstraint=eastwest;" vertex="1" parent="PXVH4oSnN2z75oWtaAcK-87">
          <mxGeometry y="26" width="160" height="26" as="geometry" />
        </mxCell>
        <mxCell id="PXVH4oSnN2z75oWtaAcK-89" value="Entradas" style="swimlane;html=1;fontStyle=1;childLayout=stackLayout;horizontal=1;startSize=26;fillColor=none;horizontalStack=0;resizeParent=1;resizeLast=0;collapsible=1;marginBottom=0;swimlaneFillColor=#ffffff;rounded=0;shadow=0;comic=0;labelBackgroundColor=none;strokeWidth=1;fontFamily=Verdana;fontSize=10;align=center;" vertex="1" parent="1">
          <mxGeometry x="550" y="210" width="160" height="52" as="geometry" />
        </mxCell>
        <mxCell id="PXVH4oSnN2z75oWtaAcK-90" value="name: String" style="text;html=1;strokeColor=none;fillColor=none;align=left;verticalAlign=top;spacingLeft=4;spacingRight=4;whiteSpace=wrap;overflow=hidden;rotatable=0;points=[[0,0.5],[1,0.5]];portConstraint=eastwest;" vertex="1" parent="PXVH4oSnN2z75oWtaAcK-89">
          <mxGeometry y="26" width="160" height="26" as="geometry" />
        </mxCell>
        <mxCell id="PXVH4oSnN2z75oWtaAcK-91" value="Especialidades" style="swimlane;html=1;fontStyle=1;childLayout=stackLayout;horizontal=1;startSize=26;fillColor=none;horizontalStack=0;resizeParent=1;resizeLast=0;collapsible=1;marginBottom=0;swimlaneFillColor=#ffffff;rounded=0;shadow=0;comic=0;labelBackgroundColor=none;strokeWidth=1;fontFamily=Verdana;fontSize=10;align=center;" vertex="1" parent="1">
          <mxGeometry x="550" y="278" width="160" height="52" as="geometry" />
        </mxCell>
        <mxCell id="PXVH4oSnN2z75oWtaAcK-92" value="name: String" style="text;html=1;strokeColor=none;fillColor=none;align=left;verticalAlign=top;spacingLeft=4;spacingRight=4;whiteSpace=wrap;overflow=hidden;rotatable=0;points=[[0,0.5],[1,0.5]];portConstraint=eastwest;" vertex="1" parent="PXVH4oSnN2z75oWtaAcK-91">
          <mxGeometry y="26" width="160" height="26" as="geometry" />
        </mxCell>
        <mxCell id="PXVH4oSnN2z75oWtaAcK-96" value="Menú y Especialidades" style="swimlane;fontStyle=1;align=center;verticalAlign=top;childLayout=stackLayout;horizontal=1;startSize=26;horizontalStack=0;resizeParent=1;resizeParentMax=0;resizeLast=0;collapsible=1;marginBottom=0;" vertex="1" parent="1">
          <mxGeometry x="220" y="206" width="160" height="60" as="geometry" />
        </mxCell>
        <mxCell id="PXVH4oSnN2z75oWtaAcK-97" value="name:String" style="text;strokeColor=none;fillColor=none;align=left;verticalAlign=top;spacingLeft=4;spacingRight=4;overflow=hidden;rotatable=0;points=[[0,0.5],[1,0.5]];portConstraint=eastwest;" vertex="1" parent="PXVH4oSnN2z75oWtaAcK-96">
          <mxGeometry y="26" width="160" height="26" as="geometry" />
        </mxCell>
        <mxCell id="PXVH4oSnN2z75oWtaAcK-98" value="" style="line;strokeWidth=1;fillColor=none;align=left;verticalAlign=middle;spacingTop=-1;spacingLeft=3;spacingRight=3;rotatable=0;labelPosition=right;points=[];portConstraint=eastwest;" vertex="1" parent="PXVH4oSnN2z75oWtaAcK-96">
          <mxGeometry y="52" width="160" height="8" as="geometry" />
        </mxCell>
        <mxCell id="PXVH4oSnN2z75oWtaAcK-100" value="botonPedido" style="swimlane;fontStyle=1;align=center;verticalAlign=top;childLayout=stackLayout;horizontal=1;startSize=26;horizontalStack=0;resizeParent=1;resizeParentMax=0;resizeLast=0;collapsible=1;marginBottom=0;" vertex="1" parent="1">
          <mxGeometry x="550" y="507" width="160" height="94" as="geometry" />
        </mxCell>
        <mxCell id="PXVH4oSnN2z75oWtaAcK-101" value="name:String&#xa;logo: Image" style="text;strokeColor=none;fillColor=none;align=left;verticalAlign=top;spacingLeft=4;spacingRight=4;overflow=hidden;rotatable=0;points=[[0,0.5],[1,0.5]];portConstraint=eastwest;" vertex="1" parent="PXVH4oSnN2z75oWtaAcK-100">
          <mxGeometry y="26" width="160" height="34" as="geometry" />
        </mxCell>
        <mxCell id="PXVH4oSnN2z75oWtaAcK-102" value="" style="line;strokeWidth=1;fillColor=none;align=left;verticalAlign=middle;spacingTop=-1;spacingLeft=3;spacingRight=3;rotatable=0;labelPosition=right;points=[];portConstraint=eastwest;" vertex="1" parent="PXVH4oSnN2z75oWtaAcK-100">
          <mxGeometry y="60" width="160" height="8" as="geometry" />
        </mxCell>
        <mxCell id="PXVH4oSnN2z75oWtaAcK-103" value="mostrarPedido()" style="text;strokeColor=none;fillColor=none;align=left;verticalAlign=top;spacingLeft=4;spacingRight=4;overflow=hidden;rotatable=0;points=[[0,0.5],[1,0.5]];portConstraint=eastwest;" vertex="1" parent="PXVH4oSnN2z75oWtaAcK-100">
          <mxGeometry y="68" width="160" height="26" as="geometry" />
        </mxCell>
        <mxCell id="PXVH4oSnN2z75oWtaAcK-104" value="MiPedido" style="swimlane;fontStyle=1;align=center;verticalAlign=top;childLayout=stackLayout;horizontal=1;startSize=26;horizontalStack=0;resizeParent=1;resizeParentMax=0;resizeLast=0;collapsible=1;marginBottom=0;" vertex="1" parent="1">
          <mxGeometry x="814" y="508" width="160" height="84" as="geometry" />
        </mxCell>
        <mxCell id="PXVH4oSnN2z75oWtaAcK-105" value="name:String" style="text;strokeColor=none;fillColor=none;align=left;verticalAlign=top;spacingLeft=4;spacingRight=4;overflow=hidden;rotatable=0;points=[[0,0.5],[1,0.5]];portConstraint=eastwest;" vertex="1" parent="PXVH4oSnN2z75oWtaAcK-104">
          <mxGeometry y="26" width="160" height="24" as="geometry" />
        </mxCell>
        <mxCell id="PXVH4oSnN2z75oWtaAcK-106" value="" style="line;strokeWidth=1;fillColor=none;align=left;verticalAlign=middle;spacingTop=-1;spacingLeft=3;spacingRight=3;rotatable=0;labelPosition=right;points=[];portConstraint=eastwest;" vertex="1" parent="PXVH4oSnN2z75oWtaAcK-104">
          <mxGeometry y="50" width="160" height="8" as="geometry" />
        </mxCell>
        <mxCell id="PXVH4oSnN2z75oWtaAcK-107" value="finalizarCompra()" style="text;strokeColor=none;fillColor=none;align=left;verticalAlign=top;spacingLeft=4;spacingRight=4;overflow=hidden;rotatable=0;points=[[0,0.5],[1,0.5]];portConstraint=eastwest;" vertex="1" parent="PXVH4oSnN2z75oWtaAcK-104">
          <mxGeometry y="58" width="160" height="26" as="geometry" />
        </mxCell>
        <mxCell id="PXVH4oSnN2z75oWtaAcK-108" value="Platillos" style="swimlane;fontStyle=1;align=center;verticalAlign=top;childLayout=stackLayout;horizontal=1;startSize=26;horizontalStack=0;resizeParent=1;resizeParentMax=0;resizeLast=0;collapsible=1;marginBottom=0;" vertex="1" parent="1">
          <mxGeometry x="814" y="399" width="160" height="94" as="geometry" />
        </mxCell>
        <mxCell id="PXVH4oSnN2z75oWtaAcK-109" value="name:String&#xa;preview: Image" style="text;strokeColor=none;fillColor=none;align=left;verticalAlign=top;spacingLeft=4;spacingRight=4;overflow=hidden;rotatable=0;points=[[0,0.5],[1,0.5]];portConstraint=eastwest;" vertex="1" parent="PXVH4oSnN2z75oWtaAcK-108">
          <mxGeometry y="26" width="160" height="34" as="geometry" />
        </mxCell>
        <mxCell id="PXVH4oSnN2z75oWtaAcK-110" value="" style="line;strokeWidth=1;fillColor=none;align=left;verticalAlign=middle;spacingTop=-1;spacingLeft=3;spacingRight=3;rotatable=0;labelPosition=right;points=[];portConstraint=eastwest;" vertex="1" parent="PXVH4oSnN2z75oWtaAcK-108">
          <mxGeometry y="60" width="160" height="8" as="geometry" />
        </mxCell>
        <mxCell id="PXVH4oSnN2z75oWtaAcK-111" value="ordenarPlatillo()" style="text;strokeColor=none;fillColor=none;align=left;verticalAlign=top;spacingLeft=4;spacingRight=4;overflow=hidden;rotatable=0;points=[[0,0.5],[1,0.5]];portConstraint=eastwest;" vertex="1" parent="PXVH4oSnN2z75oWtaAcK-108">
          <mxGeometry y="68" width="160" height="26" as="geometry" />
        </mxCell>
        <mxCell id="PXVH4oSnN2z75oWtaAcK-116" value="Direccion" style="swimlane;html=1;fontStyle=1;childLayout=stackLayout;horizontal=1;startSize=26;fillColor=none;horizontalStack=0;resizeParent=1;resizeLast=0;collapsible=1;marginBottom=0;swimlaneFillColor=#ffffff;rounded=0;shadow=0;comic=0;labelBackgroundColor=none;strokeWidth=1;fontFamily=Verdana;fontSize=10;align=center;" vertex="1" parent="1">
          <mxGeometry x="550" y="650" width="160" height="78" as="geometry" />
        </mxCell>
        <mxCell id="PXVH4oSnN2z75oWtaAcK-117" value="name: String" style="text;html=1;strokeColor=none;fillColor=none;align=left;verticalAlign=top;spacingLeft=4;spacingRight=4;whiteSpace=wrap;overflow=hidden;rotatable=0;points=[[0,0.5],[1,0.5]];portConstraint=eastwest;" vertex="1" parent="PXVH4oSnN2z75oWtaAcK-116">
          <mxGeometry y="26" width="160" height="26" as="geometry" />
        </mxCell>
        <mxCell id="PXVH4oSnN2z75oWtaAcK-118" value="value: String" style="text;html=1;strokeColor=none;fillColor=none;align=left;verticalAlign=top;spacingLeft=4;spacingRight=4;whiteSpace=wrap;overflow=hidden;rotatable=0;points=[[0,0.5],[1,0.5]];portConstraint=eastwest;" vertex="1" parent="PXVH4oSnN2z75oWtaAcK-116">
          <mxGeometry y="52" width="160" height="26" as="geometry" />
        </mxCell>
        <mxCell id="PXVH4oSnN2z75oWtaAcK-119" value="Teléfono" style="swimlane;html=1;fontStyle=1;childLayout=stackLayout;horizontal=1;startSize=26;fillColor=none;horizontalStack=0;resizeParent=1;resizeLast=0;collapsible=1;marginBottom=0;swimlaneFillColor=#ffffff;rounded=0;shadow=0;comic=0;labelBackgroundColor=none;strokeWidth=1;fontFamily=Verdana;fontSize=10;align=center;" vertex="1" parent="1">
          <mxGeometry x="550" y="744" width="160" height="78" as="geometry" />
        </mxCell>
        <mxCell id="PXVH4oSnN2z75oWtaAcK-120" value="name: String" style="text;html=1;strokeColor=none;fillColor=none;align=left;verticalAlign=top;spacingLeft=4;spacingRight=4;whiteSpace=wrap;overflow=hidden;rotatable=0;points=[[0,0.5],[1,0.5]];portConstraint=eastwest;" vertex="1" parent="PXVH4oSnN2z75oWtaAcK-119">
          <mxGeometry y="26" width="160" height="26" as="geometry" />
        </mxCell>
        <mxCell id="PXVH4oSnN2z75oWtaAcK-121" value="value: String" style="text;html=1;strokeColor=none;fillColor=none;align=left;verticalAlign=top;spacingLeft=4;spacingRight=4;whiteSpace=wrap;overflow=hidden;rotatable=0;points=[[0,0.5],[1,0.5]];portConstraint=eastwest;" vertex="1" parent="PXVH4oSnN2z75oWtaAcK-119">
          <mxGeometry y="52" width="160" height="26" as="geometry" />
        </mxCell>
        <mxCell id="PXVH4oSnN2z75oWtaAcK-122" value="Email" style="swimlane;html=1;fontStyle=1;childLayout=stackLayout;horizontal=1;startSize=26;fillColor=none;horizontalStack=0;resizeParent=1;resizeLast=0;collapsible=1;marginBottom=0;swimlaneFillColor=#ffffff;rounded=0;shadow=0;comic=0;labelBackgroundColor=none;strokeWidth=1;fontFamily=Verdana;fontSize=10;align=center;" vertex="1" parent="1">
          <mxGeometry x="550" y="840" width="160" height="78" as="geometry" />
        </mxCell>
        <mxCell id="PXVH4oSnN2z75oWtaAcK-123" value="name: String" style="text;html=1;strokeColor=none;fillColor=none;align=left;verticalAlign=top;spacingLeft=4;spacingRight=4;whiteSpace=wrap;overflow=hidden;rotatable=0;points=[[0,0.5],[1,0.5]];portConstraint=eastwest;" vertex="1" parent="PXVH4oSnN2z75oWtaAcK-122">
          <mxGeometry y="26" width="160" height="26" as="geometry" />
        </mxCell>
        <mxCell id="PXVH4oSnN2z75oWtaAcK-124" value="value: String" style="text;html=1;strokeColor=none;fillColor=none;align=left;verticalAlign=top;spacingLeft=4;spacingRight=4;whiteSpace=wrap;overflow=hidden;rotatable=0;points=[[0,0.5],[1,0.5]];portConstraint=eastwest;" vertex="1" parent="PXVH4oSnN2z75oWtaAcK-122">
          <mxGeometry y="52" width="160" height="26" as="geometry" />
        </mxCell>
        <mxCell id="PXVH4oSnN2z75oWtaAcK-125" value="" style="endArrow=none;html=1;rounded=0;align=center;verticalAlign=bottom;labelBackgroundColor=none;entryX=0.002;entryY=0.346;entryDx=0;entryDy=0;edgeStyle=orthogonalEdgeStyle;entryPerimeter=0;" edge="1" parent="1" target="PXVH4oSnN2z75oWtaAcK-96">
          <mxGeometry relative="1" as="geometry">
            <mxPoint x="70" y="380" as="sourcePoint" />
            <mxPoint x="219.84000000000015" y="380.02" as="targetPoint" />
            <Array as="points">
              <mxPoint x="200" y="380" />
              <mxPoint x="200" y="227" />
            </Array>
          </mxGeometry>
        </mxCell>
        <mxCell id="PXVH4oSnN2z75oWtaAcK-126" value="redirige a" style="text;html=1;strokeColor=none;fillColor=none;align=center;verticalAlign=middle;whiteSpace=wrap;rounded=0;" vertex="1" parent="1">
          <mxGeometry x="140" y="62" width="70" height="10" as="geometry" />
        </mxCell>
        <mxCell id="PXVH4oSnN2z75oWtaAcK-127" value="" style="triangle;aspect=fixed;fillColor=#000000;rotation=0;" vertex="1" parent="1">
          <mxGeometry x="210" y="60" width="6" height="12" as="geometry" />
        </mxCell>
        <mxCell id="PXVH4oSnN2z75oWtaAcK-128" value="redirige a" style="text;html=1;strokeColor=none;fillColor=none;align=center;verticalAlign=middle;whiteSpace=wrap;rounded=0;" vertex="1" parent="1">
          <mxGeometry x="90" y="367" width="70" height="10" as="geometry" />
        </mxCell>
        <mxCell id="PXVH4oSnN2z75oWtaAcK-129" value="" style="triangle;aspect=fixed;fillColor=#000000;rotation=0;" vertex="1" parent="1">
          <mxGeometry x="160" y="365" width="6" height="12" as="geometry" />
        </mxCell>
        <mxCell id="PXVH4oSnN2z75oWtaAcK-130" value="redirige a" style="text;html=1;strokeColor=none;fillColor=none;align=center;verticalAlign=middle;whiteSpace=wrap;rounded=0;" vertex="1" parent="1">
          <mxGeometry x="93" y="393" width="70" height="10" as="geometry" />
        </mxCell>
        <mxCell id="PXVH4oSnN2z75oWtaAcK-131" value="" style="triangle;aspect=fixed;fillColor=#000000;rotation=0;" vertex="1" parent="1">
          <mxGeometry x="163" y="391" width="6" height="12" as="geometry" />
        </mxCell>
        <mxCell id="PXVH4oSnN2z75oWtaAcK-132" value="redirige a" style="text;html=1;strokeColor=none;fillColor=none;align=center;verticalAlign=middle;whiteSpace=wrap;rounded=0;" vertex="1" parent="1">
          <mxGeometry x="68" y="427" width="70" height="10" as="geometry" />
        </mxCell>
        <mxCell id="PXVH4oSnN2z75oWtaAcK-133" value="" style="triangle;aspect=fixed;fillColor=#000000;rotation=0;" vertex="1" parent="1">
          <mxGeometry x="138" y="425" width="6" height="12" as="geometry" />
        </mxCell>
        <mxCell id="PXVH4oSnN2z75oWtaAcK-134" value="" style="endArrow=none;html=1;rounded=0;align=center;verticalAlign=bottom;labelBackgroundColor=none;exitX=0.999;exitY=0.01;exitDx=0;exitDy=0;edgeStyle=orthogonalEdgeStyle;elbow=vertical;entryX=0.498;entryY=0.986;entryDx=0;entryDy=0;entryPerimeter=0;exitPerimeter=0;" edge="1" parent="1" source="PXVH4oSnN2z75oWtaAcK-51" target="17acba5748e5396b-32">
          <mxGeometry relative="1" as="geometry">
            <mxPoint x="390" y="699" as="sourcePoint" />
            <mxPoint x="520.0769230769233" y="-8" as="targetPoint" />
            <Array as="points">
              <mxPoint x="390" y="429" />
              <mxPoint x="510" y="430" />
              <mxPoint x="510" y="-8" />
              <mxPoint x="510" y="-8" />
            </Array>
          </mxGeometry>
        </mxCell>
        <mxCell id="PXVH4oSnN2z75oWtaAcK-135" value="" style="endArrow=none;html=1;rounded=0;align=center;verticalAlign=bottom;labelBackgroundColor=none;edgeStyle=orthogonalEdgeStyle;elbow=vertical;" edge="1" parent="1" target="17acba5748e5396b-32">
          <mxGeometry relative="1" as="geometry">
            <mxPoint x="380" y="240" as="sourcePoint" />
            <mxPoint x="509.68000000000006" y="-8.364000000000033" as="targetPoint" />
            <Array as="points">
              <mxPoint x="510" y="240" />
            </Array>
          </mxGeometry>
        </mxCell>
        <mxCell id="PXVH4oSnN2z75oWtaAcK-136" value="" style="endArrow=none;html=1;rounded=0;align=center;verticalAlign=bottom;labelBackgroundColor=none;edgeStyle=orthogonalEdgeStyle;elbow=vertical;exitX=1;exitY=0.5;exitDx=0;exitDy=0;" edge="1" parent="1" source="PXVH4oSnN2z75oWtaAcK-42" target="17acba5748e5396b-32">
          <mxGeometry relative="1" as="geometry">
            <mxPoint x="380" y="238.36" as="sourcePoint" />
            <mxPoint x="509.6800000000003" y="-10.004000000000033" as="targetPoint" />
            <Array as="points">
              <mxPoint x="510" y="85" />
            </Array>
          </mxGeometry>
        </mxCell>
        <mxCell id="PXVH4oSnN2z75oWtaAcK-137" value="contiene" style="text;html=1;strokeColor=none;fillColor=none;align=center;verticalAlign=middle;whiteSpace=wrap;rounded=0;" vertex="1" parent="1">
          <mxGeometry x="400" y="72" width="50" height="10" as="geometry" />
        </mxCell>
        <mxCell id="PXVH4oSnN2z75oWtaAcK-138" value="" style="triangle;aspect=fixed;fillColor=#000000;rotation=0;" vertex="1" parent="1">
          <mxGeometry x="460" y="70" width="6" height="12" as="geometry" />
        </mxCell>
        <mxCell id="PXVH4oSnN2z75oWtaAcK-139" value="contiene" style="text;html=1;strokeColor=none;fillColor=none;align=center;verticalAlign=middle;whiteSpace=wrap;rounded=0;" vertex="1" parent="1">
          <mxGeometry x="402" y="226" width="50" height="10" as="geometry" />
        </mxCell>
        <mxCell id="PXVH4oSnN2z75oWtaAcK-140" value="" style="triangle;aspect=fixed;fillColor=#000000;rotation=0;" vertex="1" parent="1">
          <mxGeometry x="460" y="226" width="6" height="12" as="geometry" />
        </mxCell>
        <mxCell id="PXVH4oSnN2z75oWtaAcK-141" value="contiene" style="text;html=1;strokeColor=none;fillColor=none;align=center;verticalAlign=middle;whiteSpace=wrap;rounded=0;" vertex="1" parent="1">
          <mxGeometry x="400" y="415" width="50" height="10" as="geometry" />
        </mxCell>
        <mxCell id="PXVH4oSnN2z75oWtaAcK-142" value="" style="triangle;aspect=fixed;fillColor=#000000;rotation=0;" vertex="1" parent="1">
          <mxGeometry x="460" y="413" width="6" height="12" as="geometry" />
        </mxCell>
        <mxCell id="PXVH4oSnN2z75oWtaAcK-145" value="contiene" style="text;html=1;strokeColor=none;fillColor=none;align=center;verticalAlign=middle;whiteSpace=wrap;rounded=0;" vertex="1" parent="1">
          <mxGeometry x="396" y="666" width="50" height="10" as="geometry" />
        </mxCell>
        <mxCell id="PXVH4oSnN2z75oWtaAcK-146" value="" style="triangle;aspect=fixed;fillColor=#000000;rotation=0;" vertex="1" parent="1">
          <mxGeometry x="460" y="664" width="6" height="12" as="geometry" />
        </mxCell>
        <mxCell id="PXVH4oSnN2z75oWtaAcK-147" value="" style="triangle;aspect=fixed;fillColor=#000000;" vertex="1" parent="1">
          <mxGeometry x="460" y="45" width="6" height="12" as="geometry" />
        </mxCell>
        <mxCell id="PXVH4oSnN2z75oWtaAcK-148" value="" style="endArrow=none;html=1;rounded=0;align=center;verticalAlign=bottom;labelBackgroundColor=none;elbow=vertical;" edge="1" parent="1">
          <mxGeometry relative="1" as="geometry">
            <mxPoint x="380" y="60" as="sourcePoint" />
            <mxPoint x="550" y="60" as="targetPoint" />
          </mxGeometry>
        </mxCell>
        <mxCell id="PXVH4oSnN2z75oWtaAcK-150" value="contiene" style="text;html=1;strokeColor=none;fillColor=none;align=center;verticalAlign=middle;whiteSpace=wrap;rounded=0;" vertex="1" parent="1">
          <mxGeometry x="402" y="47" width="50" height="10" as="geometry" />
        </mxCell>
        <mxCell id="PXVH4oSnN2z75oWtaAcK-151" value="" style="triangle;aspect=fixed;fillColor=#000000;" vertex="1" parent="1">
          <mxGeometry x="460" y="87" width="6" height="12" as="geometry" />
        </mxCell>
        <mxCell id="PXVH4oSnN2z75oWtaAcK-152" value="" style="endArrow=none;html=1;rounded=0;align=center;verticalAlign=bottom;labelBackgroundColor=none;elbow=vertical;edgeStyle=orthogonalEdgeStyle;entryX=0.005;entryY=0.344;entryDx=0;entryDy=0;entryPerimeter=0;" edge="1" parent="1" target="PXVH4oSnN2z75oWtaAcK-87">
          <mxGeometry relative="1" as="geometry">
            <mxPoint x="380" y="101" as="sourcePoint" />
            <mxPoint x="550" y="101" as="targetPoint" />
          </mxGeometry>
        </mxCell>
        <mxCell id="PXVH4oSnN2z75oWtaAcK-153" value="contiene" style="text;html=1;strokeColor=none;fillColor=none;align=center;verticalAlign=middle;whiteSpace=wrap;rounded=0;" vertex="1" parent="1">
          <mxGeometry x="402" y="88" width="50" height="10" as="geometry" />
        </mxCell>
        <mxCell id="PXVH4oSnN2z75oWtaAcK-155" value="" style="triangle;aspect=fixed;fillColor=#000000;" vertex="1" parent="1">
          <mxGeometry x="460" y="206" width="6" height="12" as="geometry" />
        </mxCell>
        <mxCell id="PXVH4oSnN2z75oWtaAcK-156" value="" style="endArrow=none;html=1;rounded=0;align=center;verticalAlign=bottom;labelBackgroundColor=none;elbow=vertical;" edge="1" parent="1">
          <mxGeometry relative="1" as="geometry">
            <mxPoint x="380" y="221" as="sourcePoint" />
            <mxPoint x="550" y="221" as="targetPoint" />
          </mxGeometry>
        </mxCell>
        <mxCell id="PXVH4oSnN2z75oWtaAcK-157" value="contiene" style="text;html=1;strokeColor=none;fillColor=none;align=center;verticalAlign=middle;whiteSpace=wrap;rounded=0;" vertex="1" parent="1">
          <mxGeometry x="402" y="208" width="50" height="10" as="geometry" />
        </mxCell>
        <mxCell id="PXVH4oSnN2z75oWtaAcK-158" value="" style="triangle;aspect=fixed;fillColor=#000000;" vertex="1" parent="1">
          <mxGeometry x="460" y="248" width="6" height="12" as="geometry" />
        </mxCell>
        <mxCell id="PXVH4oSnN2z75oWtaAcK-159" value="" style="endArrow=none;html=1;rounded=0;align=center;verticalAlign=bottom;labelBackgroundColor=none;elbow=vertical;edgeStyle=orthogonalEdgeStyle;entryX=0.005;entryY=0.344;entryDx=0;entryDy=0;entryPerimeter=0;" edge="1" parent="1">
          <mxGeometry relative="1" as="geometry">
            <mxPoint x="380" y="262" as="sourcePoint" />
            <mxPoint x="550.8" y="288.88800000000015" as="targetPoint" />
            <Array as="points">
              <mxPoint x="480" y="262" />
              <mxPoint x="480" y="289" />
            </Array>
          </mxGeometry>
        </mxCell>
        <mxCell id="PXVH4oSnN2z75oWtaAcK-160" value="contiene" style="text;html=1;strokeColor=none;fillColor=none;align=center;verticalAlign=middle;whiteSpace=wrap;rounded=0;" vertex="1" parent="1">
          <mxGeometry x="402" y="249" width="50" height="10" as="geometry" />
        </mxCell>
        <mxCell id="PXVH4oSnN2z75oWtaAcK-167" value="" style="triangle;aspect=fixed;fillColor=#000000;" vertex="1" parent="1">
          <mxGeometry x="460" y="393" width="6" height="12" as="geometry" />
        </mxCell>
        <mxCell id="PXVH4oSnN2z75oWtaAcK-168" value="" style="endArrow=none;html=1;rounded=0;align=center;verticalAlign=bottom;labelBackgroundColor=none;elbow=vertical;" edge="1" parent="1">
          <mxGeometry relative="1" as="geometry">
            <mxPoint x="380" y="408" as="sourcePoint" />
            <mxPoint x="550" y="408" as="targetPoint" />
          </mxGeometry>
        </mxCell>
        <mxCell id="PXVH4oSnN2z75oWtaAcK-169" value="contiene" style="text;html=1;strokeColor=none;fillColor=none;align=center;verticalAlign=middle;whiteSpace=wrap;rounded=0;" vertex="1" parent="1">
          <mxGeometry x="402" y="395" width="50" height="10" as="geometry" />
        </mxCell>
        <mxCell id="PXVH4oSnN2z75oWtaAcK-170" value="" style="triangle;aspect=fixed;fillColor=#000000;" vertex="1" parent="1">
          <mxGeometry x="460" y="435" width="6" height="12" as="geometry" />
        </mxCell>
        <mxCell id="PXVH4oSnN2z75oWtaAcK-171" value="" style="endArrow=none;html=1;rounded=0;align=center;verticalAlign=bottom;labelBackgroundColor=none;elbow=vertical;edgeStyle=orthogonalEdgeStyle;entryX=0.002;entryY=0.167;entryDx=0;entryDy=0;entryPerimeter=0;" edge="1" parent="1" target="PXVH4oSnN2z75oWtaAcK-100">
          <mxGeometry relative="1" as="geometry">
            <mxPoint x="380" y="449" as="sourcePoint" />
            <mxPoint x="550.8" y="475.88800000000015" as="targetPoint" />
            <Array as="points">
              <mxPoint x="480" y="449" />
              <mxPoint x="480" y="523" />
            </Array>
          </mxGeometry>
        </mxCell>
        <mxCell id="PXVH4oSnN2z75oWtaAcK-172" value="contiene" style="text;html=1;strokeColor=none;fillColor=none;align=center;verticalAlign=middle;whiteSpace=wrap;rounded=0;" vertex="1" parent="1">
          <mxGeometry x="402" y="436" width="50" height="10" as="geometry" />
        </mxCell>
        <mxCell id="PXVH4oSnN2z75oWtaAcK-174" value="" style="triangle;aspect=fixed;fillColor=#000000;" vertex="1" parent="1">
          <mxGeometry x="460" y="645.11" width="6" height="12" as="geometry" />
        </mxCell>
        <mxCell id="PXVH4oSnN2z75oWtaAcK-175" value="" style="endArrow=none;html=1;rounded=0;align=center;verticalAlign=bottom;labelBackgroundColor=none;elbow=vertical;" edge="1" parent="1">
          <mxGeometry relative="1" as="geometry">
            <mxPoint x="380" y="660.11" as="sourcePoint" />
            <mxPoint x="550" y="660.11" as="targetPoint" />
          </mxGeometry>
        </mxCell>
        <mxCell id="PXVH4oSnN2z75oWtaAcK-176" value="contiene" style="text;html=1;strokeColor=none;fillColor=none;align=center;verticalAlign=middle;whiteSpace=wrap;rounded=0;" vertex="1" parent="1">
          <mxGeometry x="402" y="647.11" width="50" height="10" as="geometry" />
        </mxCell>
        <mxCell id="PXVH4oSnN2z75oWtaAcK-177" value="" style="triangle;aspect=fixed;fillColor=#000000;" vertex="1" parent="1">
          <mxGeometry x="460" y="687.11" width="6" height="12" as="geometry" />
        </mxCell>
        <mxCell id="PXVH4oSnN2z75oWtaAcK-178" value="" style="endArrow=none;html=1;rounded=0;align=center;verticalAlign=bottom;labelBackgroundColor=none;elbow=vertical;edgeStyle=orthogonalEdgeStyle;entryX=-0.002;entryY=0.212;entryDx=0;entryDy=0;entryPerimeter=0;" edge="1" parent="1" target="PXVH4oSnN2z75oWtaAcK-119">
          <mxGeometry relative="1" as="geometry">
            <mxPoint x="380" y="701.11" as="sourcePoint" />
            <mxPoint x="550.8" y="727.9980000000002" as="targetPoint" />
          </mxGeometry>
        </mxCell>
        <mxCell id="PXVH4oSnN2z75oWtaAcK-179" value="contiene" style="text;html=1;strokeColor=none;fillColor=none;align=center;verticalAlign=middle;whiteSpace=wrap;rounded=0;" vertex="1" parent="1">
          <mxGeometry x="402" y="688.11" width="50" height="10" as="geometry" />
        </mxCell>
        <mxCell id="PXVH4oSnN2z75oWtaAcK-180" value="" style="triangle;aspect=fixed;fillColor=#000000;" vertex="1" parent="1">
          <mxGeometry x="438" y="716" width="6" height="12" as="geometry" />
        </mxCell>
        <mxCell id="PXVH4oSnN2z75oWtaAcK-181" value="" style="endArrow=none;html=1;rounded=0;align=center;verticalAlign=bottom;labelBackgroundColor=none;elbow=vertical;edgeStyle=orthogonalEdgeStyle;entryX=-0.002;entryY=0.208;entryDx=0;entryDy=0;entryPerimeter=0;" edge="1" parent="1" target="PXVH4oSnN2z75oWtaAcK-122">
          <mxGeometry relative="1" as="geometry">
            <mxPoint x="380" y="709" as="sourcePoint" />
            <mxPoint x="524.82" y="801.426" as="targetPoint" />
            <Array as="points">
              <mxPoint x="450" y="709" />
              <mxPoint x="450" y="856" />
            </Array>
          </mxGeometry>
        </mxCell>
        <mxCell id="PXVH4oSnN2z75oWtaAcK-182" value="contiene" style="text;html=1;strokeColor=none;fillColor=none;align=center;verticalAlign=middle;whiteSpace=wrap;rounded=0;" vertex="1" parent="1">
          <mxGeometry x="380" y="717" width="50" height="10" as="geometry" />
        </mxCell>
        <mxCell id="PXVH4oSnN2z75oWtaAcK-184" value="" style="triangle;aspect=fixed;fillColor=#000000;" vertex="1" parent="1">
          <mxGeometry x="790" y="454" width="6" height="12" as="geometry" />
        </mxCell>
        <mxCell id="PXVH4oSnN2z75oWtaAcK-185" value="" style="endArrow=none;html=1;rounded=0;align=center;verticalAlign=bottom;labelBackgroundColor=none;elbow=vertical;entryX=0.001;entryY=0.092;entryDx=0;entryDy=0;entryPerimeter=0;" edge="1" parent="1" target="PXVH4oSnN2z75oWtaAcK-111">
          <mxGeometry relative="1" as="geometry">
            <mxPoint x="710" y="469" as="sourcePoint" />
            <mxPoint x="810" y="470" as="targetPoint" />
          </mxGeometry>
        </mxCell>
        <mxCell id="PXVH4oSnN2z75oWtaAcK-186" value="abre" style="text;html=1;strokeColor=none;fillColor=none;align=center;verticalAlign=middle;whiteSpace=wrap;rounded=0;" vertex="1" parent="1">
          <mxGeometry x="746" y="455" width="34" height="10" as="geometry" />
        </mxCell>
        <mxCell id="PXVH4oSnN2z75oWtaAcK-188" value="" style="triangle;aspect=fixed;fillColor=#000000;" vertex="1" parent="1">
          <mxGeometry x="790" y="560" width="6" height="12" as="geometry" />
        </mxCell>
        <mxCell id="PXVH4oSnN2z75oWtaAcK-189" value="" style="endArrow=none;html=1;rounded=0;align=center;verticalAlign=bottom;labelBackgroundColor=none;elbow=vertical;entryX=0.001;entryY=0.092;entryDx=0;entryDy=0;entryPerimeter=0;" edge="1" parent="1">
          <mxGeometry relative="1" as="geometry">
            <mxPoint x="710" y="575" as="sourcePoint" />
            <mxPoint x="814.1599999999999" y="575.3919999999998" as="targetPoint" />
          </mxGeometry>
        </mxCell>
        <mxCell id="PXVH4oSnN2z75oWtaAcK-190" value="abre" style="text;html=1;strokeColor=none;fillColor=none;align=center;verticalAlign=middle;whiteSpace=wrap;rounded=0;" vertex="1" parent="1">
          <mxGeometry x="746" y="561" width="34" height="10" as="geometry" />
        </mxCell>
      </root>
    </mxGraphModel>
  </diagram>
</mxfile>
